<?xml version="1.0" encoding="UTF-8" standalone="no"?>
<svg
   xmlns:sketch="http://www.bohemiancoding.com/sketch/ns"
   xmlns:dc="http://purl.org/dc/elements/1.1/"
   xmlns:cc="http://creativecommons.org/ns#"
   xmlns:rdf="http://www.w3.org/1999/02/22-rdf-syntax-ns#"
   xmlns:svg="http://www.w3.org/2000/svg"
   xmlns="http://www.w3.org/2000/svg"
   height="16"
   width="129"
   id="svg2"
   y="0px"
   x="0px"
   version="1.1"
   viewBox="0 0 129 16">
  <metadata
     id="metadata20">
    <rdf:RDF>
      <cc:Work
         rdf:about="">
        <dc:format>image/svg+xml</dc:format>
        <dc:type
           rdf:resource="http://purl.org/dc/dcmitype/StillImage" />
        <dc:title>Back Cancel</dc:title>
      </cc:Work>
    </rdf:RDF>
  </metadata>
  <defs
     id="defs18" />
  <title
     id="title4">Back Cancel</title>
  <desc
     id="desc6">Created with Sketch.</desc>
  <path
     d="M 21.309859,0 7.56338,0 C 7.1126757,0 6.6619715,0.173913 6.3239434,0.521739 L 0.46478872,6.782608 c -0.61971829,0.695653 -0.61971829,1.739131 0,2.434783 l 5.85915468,6.26087 C 6.6619715,15.826087 7.0563377,16 7.56338,16 l 13.746479,0 C 22.267605,16 23,15.246377 23,14.26087 L 23,1.797102 C 23,0.753623 22.211268,0 21.309859,0 l 0,0 z m 0,14.202898 -13.746479,0 -5.8591547,-6.260869 5.8591547,-6.26087 13.746479,0 0,12.521739 0,0 z M 10.211268,11.594202 c 0.169014,0.173913 0.394366,0.231885 0.619718,0.231885 0.225352,0 0.450704,-0.05797 0.619718,-0.231885 l 2.30986,-2.376811 2.309859,2.376811 c 0.169013,0.173913 0.394367,0.231885 0.619719,0.231885 0.225351,0 0.450704,-0.05797 0.619718,-0.231885 0.338027,-0.347825 0.338027,-0.869564 0,-1.217391 L 15,8 17.30986,5.623189 c 0.338027,-0.347827 0.338027,-0.869566 0,-1.217392 -0.338029,-0.347827 -0.84507,-0.347827 -1.1831,0 L 13.816902,6.782608 11.507043,4.405797 c -0.338029,-0.347827 -0.845072,-0.347827 -1.1831,0 -0.3380283,0.347826 -0.3380283,0.869565 0,1.217392 L 12.633804,8 10.323943,10.376811 c -0.4507041,0.347827 -0.4507041,0.869566 -0.112676,1.217391 l 0,0 z"
     sketch:type="MSShapeGroup"
     id="path10"
     style="fill:#35495f;fill-opacity:1;fill-rule:evenodd;stroke:none;stroke-width:1" />
  <path
     d="M 74.30986,0 60.56338,0 c -0.450704,0 -0.901409,0.173913 -1.239436,0.521739 l -5.859155,6.260869 c -0.619718,0.695653 -0.619718,1.739131 0,2.434783 l 5.859155,6.26087 C 59.661971,15.826087 60.056337,16 60.56338,16 l 13.74648,0 C 75.267605,16 76,15.246377 76,14.26087 L 76,1.797102 C 76,0.753623 75.211268,0 74.30986,0 l 0,0 z m 0,14.202898 -13.74648,0 -5.859155,-6.260869 5.859155,-6.26087 13.74648,0 0,12.521739 0,0 z M 63.211269,11.594202 c 0.169013,0.173913 0.394365,0.231885 0.619717,0.231885 0.225352,0 0.450703,-0.05797 0.619718,-0.231885 l 2.30986,-2.376811 2.30986,2.376811 c 0.169011,0.173913 0.394366,0.231885 0.619718,0.231885 0.225352,0 0.450704,-0.05797 0.619718,-0.231885 0.338028,-0.347825 0.338028,-0.869564 0,-1.217391 L 68,8 70.30986,5.623189 c 0.338027,-0.347827 0.338027,-0.869566 0,-1.217392 -0.33803,-0.347827 -0.845071,-0.347827 -1.183099,0 l -2.30986,2.376811 -2.309859,-2.376811 c -0.338028,-0.347827 -0.845071,-0.347827 -1.183099,0 -0.338029,0.347826 -0.338029,0.869565 0,1.217392 L 65.633803,8 l -2.30986,2.376811 c -0.450705,0.347827 -0.450705,0.869566 -0.112677,1.217391 l 0,0 z"
     sketch:type="MSShapeGroup"
     id="path10-3"
     style="fill:#3498df;fill-opacity:0.94117647;fill-rule:evenodd;stroke:none;stroke-width:1" />
  <path
     d="m 127.30986,0 -13.74648,0 c -0.4507,0 -0.90141,0.173913 -1.23944,0.521739 l -5.85915,6.260869 c -0.61972,0.695653 -0.61972,1.739131 0,2.434783 l 5.85915,6.26087 C 112.66197,15.826087 113.05634,16 113.56338,16 l 13.74648,0 C 128.26761,16 129,15.246377 129,14.26087 L 129,1.797102 C 129,0.753623 128.21127,0 127.30986,0 l 0,0 z m 0,14.202898 -13.74648,0 -5.85916,-6.260869 5.85916,-6.260869 13.74648,0 0,12.521738 0,0 z m -11.09859,-2.608696 c 0.16901,0.173913 0.39436,0.231885 0.61971,0.231885 0.22536,0 0.45071,-0.05797 0.61972,-0.231885 l 2.30987,-2.376811 2.30986,2.376811 c 0.16901,0.173913 0.39437,0.231885 0.61972,0.231885 0.22534,0 0.4507,-0.05797 0.61971,-0.231885 0.33803,-0.347825 0.33803,-0.869564 0,-1.217391 L 121,8 123.30986,5.623189 c 0.33803,-0.347827 0.33803,-0.869566 0,-1.217392 -0.33803,-0.347827 -0.84506,-0.347827 -1.1831,0 l -2.30985,2.376811 -2.30987,-2.376811 c -0.33802,-0.347827 -0.84507,-0.347827 -1.18309,0 -0.33803,0.347826 -0.33803,0.869565 0,1.217392 L 118.63381,8 l -2.30986,2.376811 c -0.4507,0.347827 -0.4507,0.869566 -0.1127,1.217391 l 0,0 z"
     sketch:type="MSShapeGroup"
     id="path10-3-8"
     style="fill:#62b7ff;fill-opacity:0.94117647;fill-rule:evenodd;stroke:none;stroke-width:1" />
</svg>
